{
	"patcher" : 	{
		"fileversion" : 1,
		"rect" : [ 986.0, 218.0, 640.0, 480.0 ],
		"bglocked" : 0,
		"defrect" : [ 986.0, 218.0, 640.0, 480.0 ],
		"openrect" : [ 0.0, 0.0, 0.0, 0.0 ],
		"openinpresentation" : 0,
		"default_fontsize" : 12.0,
		"default_fontface" : 0,
		"default_fontname" : "Arial",
		"gridonopen" : 0,
		"gridsize" : [ 15.0, 15.0 ],
		"gridsnaponopen" : 0,
		"toolbarvisible" : 1,
		"boxanimatetime" : 200,
		"imprint" : 0,
		"enablehscroll" : 1,
		"enablevscroll" : 1,
		"devicewidth" : 0.0,
		"boxes" : [ 			{
				"box" : 				{
					"maxclass" : "comment",
					"text" : "The delayed signal",
					"patching_rect" : [ 421.0, 96.0, 143.0, 20.0 ],
					"numoutlets" : 0,
					"fontname" : "Arial",
					"id" : "obj-65",
					"numinlets" : 1,
					"fontsize" : 12.0
				}

			}
, 			{
				"box" : 				{
					"maxclass" : "comment",
					"text" : "The signal to be delayed",
					"patching_rect" : [ 46.0, 43.0, 143.0, 20.0 ],
					"numoutlets" : 0,
					"fontname" : "Arial",
					"id" : "obj-59",
					"numinlets" : 1,
					"fontsize" : 12.0
				}

			}
, 			{
				"box" : 				{
					"maxclass" : "comment",
					"text" : "frequency",
					"patching_rect" : [ 40.0, 88.0, 65.0, 20.0 ],
					"numoutlets" : 0,
					"fontname" : "Arial",
					"id" : "obj-58",
					"numinlets" : 1,
					"fontsize" : 12.0
				}

			}
, 			{
				"box" : 				{
					"maxclass" : "newobj",
					"text" : "loadmess 0.7",
					"patching_rect" : [ 577.0, 345.0, 82.0, 20.0 ],
					"numoutlets" : 1,
					"outlettype" : [ "" ],
					"fontname" : "Arial",
					"id" : "obj-55",
					"numinlets" : 1,
					"fontsize" : 12.0,
					"hidden" : 1
				}

			}
, 			{
				"box" : 				{
					"maxclass" : "newobj",
					"text" : "loadmess 1",
					"patching_rect" : [ 479.0, 360.0, 72.0, 20.0 ],
					"numoutlets" : 1,
					"outlettype" : [ "" ],
					"fontname" : "Arial",
					"id" : "obj-54",
					"numinlets" : 1,
					"fontsize" : 12.0,
					"hidden" : 1
				}

			}
, 			{
				"box" : 				{
					"maxclass" : "comment",
					"text" : "playback control",
					"patching_rect" : [ 656.0, 330.0, 97.0, 20.0 ],
					"numoutlets" : 0,
					"fontname" : "Arial",
					"id" : "obj-53",
					"numinlets" : 1,
					"fontsize" : 12.0
				}

			}
, 			{
				"box" : 				{
					"maxclass" : "comment",
					"text" : "on/off",
					"patching_rect" : [ 508.0, 384.0, 42.0, 20.0 ],
					"numoutlets" : 0,
					"fontname" : "Arial",
					"id" : "obj-52",
					"numinlets" : 1,
					"fontsize" : 12.0
				}

			}
, 			{
				"box" : 				{
					"maxclass" : "comment",
					"text" : "volume\n(amplitude)",
					"linecount" : 2,
					"patching_rect" : [ 632.0, 375.0, 82.0, 34.0 ],
					"numoutlets" : 0,
					"fontname" : "Arial",
					"id" : "obj-50",
					"numinlets" : 1,
					"fontsize" : 12.0
				}

			}
, 			{
				"box" : 				{
					"maxclass" : "comment",
					"text" : "0 is only original signal, 1 is only delayed signal",
					"linecount" : 3,
					"patching_rect" : [ 161.0, 360.0, 114.0, 48.0 ],
					"numoutlets" : 0,
					"fontname" : "Arial",
					"id" : "obj-49",
					"numinlets" : 1,
					"fontsize" : 12.0
				}

			}
, 			{
				"box" : 				{
					"maxclass" : "flonum",
					"patching_rect" : [ 577.0, 370.0, 50.0, 20.0 ],
					"numoutlets" : 2,
					"outlettype" : [ "float", "bang" ],
					"fontname" : "Arial",
					"id" : "obj-47",
					"numinlets" : 1,
					"fontsize" : 12.0
				}

			}
, 			{
				"box" : 				{
					"maxclass" : "newobj",
					"text" : "*~ 0.7",
					"patching_rect" : [ 555.0, 393.0, 42.0, 20.0 ],
					"numoutlets" : 1,
					"outlettype" : [ "signal" ],
					"fontname" : "Arial",
					"id" : "obj-46",
					"numinlets" : 2,
					"fontsize" : 12.0
				}

			}
, 			{
				"box" : 				{
					"maxclass" : "newobj",
					"text" : "loadmess 500",
					"patching_rect" : [ 438.0, 170.0, 85.0, 20.0 ],
					"numoutlets" : 1,
					"outlettype" : [ "" ],
					"fontname" : "Arial",
					"id" : "obj-45",
					"numinlets" : 1,
					"fontsize" : 12.0,
					"hidden" : 1
				}

			}
, 			{
				"box" : 				{
					"maxclass" : "newobj",
					"text" : "loadmess 0.5",
					"patching_rect" : [ 277.0, 355.0, 82.0, 20.0 ],
					"numoutlets" : 1,
					"outlettype" : [ "" ],
					"fontname" : "Arial",
					"id" : "obj-44",
					"numinlets" : 1,
					"fontsize" : 12.0,
					"hidden" : 1
				}

			}
, 			{
				"box" : 				{
					"maxclass" : "comment",
					"text" : "A digital delay effect.",
					"patching_rect" : [ 274.0, 28.0, 150.0, 20.0 ],
					"numoutlets" : 0,
					"fontname" : "Arial",
					"id" : "obj-38",
					"numinlets" : 1,
					"fontsize" : 12.0
				}

			}
, 			{
				"box" : 				{
					"maxclass" : "newobj",
					"text" : "dac~",
					"patching_rect" : [ 538.0, 437.0, 37.0, 20.0 ],
					"numoutlets" : 0,
					"fontname" : "Arial",
					"id" : "obj-36",
					"numinlets" : 2,
					"fontsize" : 12.0
				}

			}
, 			{
				"box" : 				{
					"maxclass" : "toggle",
					"patching_rect" : [ 479.0, 385.0, 20.0, 20.0 ],
					"numoutlets" : 1,
					"outlettype" : [ "int" ],
					"id" : "obj-33",
					"numinlets" : 1
				}

			}
, 			{
				"box" : 				{
					"maxclass" : "flonum",
					"patching_rect" : [ 279.0, 219.0, 50.0, 20.0 ],
					"numoutlets" : 2,
					"outlettype" : [ "float", "bang" ],
					"fontname" : "Arial",
					"id" : "obj-30",
					"numinlets" : 1,
					"fontsize" : 11.595187,
					"triscale" : 0.9
				}

			}
, 			{
				"box" : 				{
					"maxclass" : "comment",
					"text" : "time is specified in SAMPLES",
					"linecount" : 2,
					"patching_rect" : [ 276.0, 121.0, 124.0, 34.0 ],
					"numoutlets" : 0,
					"fontname" : "Arial",
					"id" : "obj-29",
					"numinlets" : 1,
					"fontsize" : 12.0
				}

			}
, 			{
				"box" : 				{
					"maxclass" : "comment",
					"text" : "dry/wet mix",
					"patching_rect" : [ 161.0, 332.0, 76.0, 20.0 ],
					"numoutlets" : 0,
					"fontname" : "Arial",
					"id" : "obj-3",
					"numinlets" : 1,
					"fontsize" : 12.0
				}

			}
, 			{
				"box" : 				{
					"maxclass" : "newobj",
					"text" : "*~ 0.5",
					"patching_rect" : [ 92.0, 396.0, 42.0, 20.0 ],
					"numoutlets" : 1,
					"outlettype" : [ "signal" ],
					"fontname" : "Arial",
					"id" : "obj-19",
					"numinlets" : 2,
					"fontsize" : 12.0
				}

			}
, 			{
				"box" : 				{
					"maxclass" : "message",
					"text" : "240 ticks",
					"patching_rect" : [ 699.0, 244.0, 56.0, 18.0 ],
					"numoutlets" : 1,
					"outlettype" : [ "" ],
					"fontname" : "Arial",
					"id" : "obj-42",
					"numinlets" : 2,
					"fontsize" : 11.595187
				}

			}
, 			{
				"box" : 				{
					"maxclass" : "message",
					"text" : "4n",
					"patching_rect" : [ 663.0, 245.0, 32.5, 18.0 ],
					"numoutlets" : 1,
					"outlettype" : [ "" ],
					"fontname" : "Arial",
					"id" : "obj-41",
					"numinlets" : 2,
					"fontsize" : 11.595187
				}

			}
, 			{
				"box" : 				{
					"maxclass" : "message",
					"text" : "0.0.120",
					"patching_rect" : [ 603.0, 245.0, 49.0, 18.0 ],
					"numoutlets" : 1,
					"outlettype" : [ "" ],
					"fontname" : "Arial",
					"id" : "obj-40",
					"numinlets" : 2,
					"fontsize" : 11.595187
				}

			}
, 			{
				"box" : 				{
					"maxclass" : "comment",
					"text" : "..or set the delay time in tempo-relative units if you are using the transport object to control time NOTE: Only useful if you have configured a transport object",
					"linecount" : 7,
					"patching_rect" : [ 608.0, 122.0, 145.0, 100.0 ],
					"numoutlets" : 0,
					"fontname" : "Arial",
					"id" : "obj-35",
					"numinlets" : 1,
					"fontsize" : 11.595187
				}

			}
, 			{
				"box" : 				{
					"maxclass" : "flonum",
					"patching_rect" : [ 439.0, 193.0, 50.0, 20.0 ],
					"numoutlets" : 2,
					"outlettype" : [ "float", "bang" ],
					"fontname" : "Arial",
					"id" : "obj-5",
					"numinlets" : 1,
					"fontsize" : 11.595187,
					"triscale" : 0.9
				}

			}
, 			{
				"box" : 				{
					"maxclass" : "newobj",
					"text" : "mstosamps~",
					"patching_rect" : [ 439.0, 216.0, 77.0, 20.0 ],
					"numoutlets" : 2,
					"outlettype" : [ "signal", "float" ],
					"fontname" : "Arial",
					"id" : "obj-7",
					"numinlets" : 1,
					"fontsize" : 11.595187
				}

			}
, 			{
				"box" : 				{
					"maxclass" : "number",
					"patching_rect" : [ 279.0, 249.0, 50.0, 20.0 ],
					"numoutlets" : 2,
					"outlettype" : [ "int", "bang" ],
					"fontname" : "Arial",
					"id" : "obj-14",
					"numinlets" : 1,
					"fontsize" : 11.595187,
					"triscale" : 0.9
				}

			}
, 			{
				"box" : 				{
					"maxclass" : "newobj",
					"text" : "delay~ 44100 22050",
					"patching_rect" : [ 181.0, 281.0, 116.0, 20.0 ],
					"numoutlets" : 1,
					"outlettype" : [ "signal" ],
					"fontname" : "Arial",
					"id" : "obj-17",
					"numinlets" : 2,
					"fontsize" : 11.595187
				}

			}
, 			{
				"box" : 				{
					"maxclass" : "comment",
					"text" : "optional arguments set maximum delay time (default 512 samples) and initial delay (default 0 samples)",
					"linecount" : 2,
					"patching_rect" : [ 306.0, 283.0, 355.0, 33.0 ],
					"numoutlets" : 0,
					"fontname" : "Arial",
					"id" : "obj-8",
					"numinlets" : 1,
					"fontsize" : 11.595187
				}

			}
, 			{
				"box" : 				{
					"maxclass" : "comment",
					"text" : "delay time",
					"patching_rect" : [ 329.0, 249.0, 61.0, 20.0 ],
					"numoutlets" : 0,
					"fontname" : "Arial",
					"id" : "obj-9",
					"numinlets" : 1,
					"fontsize" : 11.595187
				}

			}
, 			{
				"box" : 				{
					"maxclass" : "comment",
					"text" : "... or set delay in milliseconds by converting from ms to samples",
					"linecount" : 3,
					"patching_rect" : [ 430.0, 122.0, 163.0, 46.0 ],
					"numoutlets" : 0,
					"fontname" : "Arial",
					"id" : "obj-10",
					"numinlets" : 1,
					"fontsize" : 11.595187
				}

			}
, 			{
				"box" : 				{
					"maxclass" : "newobj",
					"text" : "!- 1.",
					"patching_rect" : [ 61.0, 370.0, 32.5, 20.0 ],
					"numoutlets" : 1,
					"outlettype" : [ "float" ],
					"fontname" : "Arial",
					"id" : "obj-39",
					"numinlets" : 2,
					"fontsize" : 12.0
				}

			}
, 			{
				"box" : 				{
					"maxclass" : "newobj",
					"text" : "*~ 0.5",
					"patching_rect" : [ 39.0, 396.0, 42.0, 20.0 ],
					"numoutlets" : 1,
					"outlettype" : [ "signal" ],
					"fontname" : "Arial",
					"id" : "obj-34",
					"numinlets" : 2,
					"fontsize" : 12.0
				}

			}
, 			{
				"box" : 				{
					"maxclass" : "flonum",
					"patching_rect" : [ 277.0, 378.0, 50.0, 20.0 ],
					"numoutlets" : 2,
					"outlettype" : [ "float", "bang" ],
					"fontname" : "Arial",
					"id" : "obj-32",
					"minimum" : 0.0,
					"numinlets" : 1,
					"fontsize" : 12.0,
					"maximum" : 1.0
				}

			}
, 			{
				"box" : 				{
					"maxclass" : "newobj",
					"text" : "cycle~ 440",
					"patching_rect" : [ 38.0, 233.0, 68.0, 20.0 ],
					"numoutlets" : 1,
					"outlettype" : [ "signal" ],
					"fontname" : "Arial",
					"id" : "obj-21",
					"numinlets" : 2,
					"fontsize" : 12.0
				}

			}
, 			{
				"box" : 				{
					"maxclass" : "comment",
					"text" : "Please note: The delay~ object CAN NOT be used with feedback of the same signal. \nSee the help documentation for more on this.",
					"linecount" : 2,
					"patching_rect" : [ 274.0, 50.0, 486.0, 34.0 ],
					"numoutlets" : 0,
					"fontname" : "Arial",
					"id" : "obj-4",
					"numinlets" : 1,
					"fontsize" : 12.0
				}

			}
 ],
		"lines" : [ 			{
				"patchline" : 				{
					"source" : [ "obj-32", 0 ],
					"destination" : [ "obj-19", 1 ],
					"hidden" : 0,
					"midpoints" : [ 286.5, 419.0, 144.0, 419.0, 144.0, 360.0, 124.5, 360.0 ]
				}

			}
, 			{
				"patchline" : 				{
					"source" : [ "obj-39", 0 ],
					"destination" : [ "obj-34", 1 ],
					"hidden" : 0,
					"midpoints" : [  ]
				}

			}
, 			{
				"patchline" : 				{
					"source" : [ "obj-32", 0 ],
					"destination" : [ "obj-39", 0 ],
					"hidden" : 0,
					"midpoints" : [ 286.5, 418.0, 144.0, 418.0, 144.0, 360.0, 70.5, 360.0 ]
				}

			}
, 			{
				"patchline" : 				{
					"source" : [ "obj-14", 0 ],
					"destination" : [ "obj-17", 1 ],
					"hidden" : 0,
					"midpoints" : [  ]
				}

			}
, 			{
				"patchline" : 				{
					"source" : [ "obj-40", 0 ],
					"destination" : [ "obj-17", 1 ],
					"hidden" : 0,
					"midpoints" : [ 612.5, 272.0, 287.5, 272.0 ]
				}

			}
, 			{
				"patchline" : 				{
					"source" : [ "obj-41", 0 ],
					"destination" : [ "obj-17", 1 ],
					"hidden" : 0,
					"midpoints" : [ 672.5, 272.0, 287.5, 272.0 ]
				}

			}
, 			{
				"patchline" : 				{
					"source" : [ "obj-42", 0 ],
					"destination" : [ "obj-17", 1 ],
					"hidden" : 0,
					"midpoints" : [ 708.5, 272.0, 287.5, 272.0 ]
				}

			}
, 			{
				"patchline" : 				{
					"source" : [ "obj-7", 1 ],
					"destination" : [ "obj-14", 0 ],
					"hidden" : 0,
					"midpoints" : [ 506.5, 242.0, 288.5, 242.0 ]
				}

			}
, 			{
				"patchline" : 				{
					"source" : [ "obj-5", 0 ],
					"destination" : [ "obj-7", 0 ],
					"hidden" : 0,
					"midpoints" : [  ]
				}

			}
, 			{
				"patchline" : 				{
					"source" : [ "obj-21", 0 ],
					"destination" : [ "obj-34", 0 ],
					"hidden" : 0,
					"midpoints" : [  ]
				}

			}
, 			{
				"patchline" : 				{
					"source" : [ "obj-30", 0 ],
					"destination" : [ "obj-14", 0 ],
					"hidden" : 0,
					"midpoints" : [  ]
				}

			}
, 			{
				"patchline" : 				{
					"source" : [ "obj-33", 0 ],
					"destination" : [ "obj-36", 0 ],
					"hidden" : 0,
					"midpoints" : [ 488.5, 428.5, 547.5, 428.5 ]
				}

			}
, 			{
				"patchline" : 				{
					"source" : [ "obj-21", 0 ],
					"destination" : [ "obj-17", 0 ],
					"hidden" : 0,
					"midpoints" : [ 47.5, 256.0, 190.5, 256.0 ]
				}

			}
, 			{
				"patchline" : 				{
					"source" : [ "obj-45", 0 ],
					"destination" : [ "obj-5", 0 ],
					"hidden" : 1,
					"midpoints" : [  ]
				}

			}
, 			{
				"patchline" : 				{
					"source" : [ "obj-44", 0 ],
					"destination" : [ "obj-32", 0 ],
					"hidden" : 1,
					"midpoints" : [  ]
				}

			}
, 			{
				"patchline" : 				{
					"source" : [ "obj-17", 0 ],
					"destination" : [ "obj-19", 0 ],
					"hidden" : 0,
					"midpoints" : [ 190.5, 311.5, 101.5, 311.5 ]
				}

			}
, 			{
				"patchline" : 				{
					"source" : [ "obj-47", 0 ],
					"destination" : [ "obj-46", 1 ],
					"hidden" : 0,
					"midpoints" : [  ]
				}

			}
, 			{
				"patchline" : 				{
					"source" : [ "obj-46", 0 ],
					"destination" : [ "obj-36", 1 ],
					"hidden" : 0,
					"midpoints" : [  ]
				}

			}
, 			{
				"patchline" : 				{
					"source" : [ "obj-46", 0 ],
					"destination" : [ "obj-36", 0 ],
					"hidden" : 0,
					"midpoints" : [ 564.5, 415.0, 547.5, 415.0 ]
				}

			}
, 			{
				"patchline" : 				{
					"source" : [ "obj-34", 0 ],
					"destination" : [ "obj-46", 0 ],
					"hidden" : 0,
					"midpoints" : [ 48.5, 447.0, 461.0, 447.0, 461.0, 342.0, 564.5, 342.0 ]
				}

			}
, 			{
				"patchline" : 				{
					"source" : [ "obj-19", 0 ],
					"destination" : [ "obj-46", 0 ],
					"hidden" : 0,
					"midpoints" : [ 101.5, 448.0, 462.0, 448.0, 462.0, 342.0, 564.5, 342.0 ]
				}

			}
, 			{
				"patchline" : 				{
					"source" : [ "obj-54", 0 ],
					"destination" : [ "obj-33", 0 ],
					"hidden" : 1,
					"midpoints" : [  ]
				}

			}
, 			{
				"patchline" : 				{
					"source" : [ "obj-55", 0 ],
					"destination" : [ "obj-47", 0 ],
					"hidden" : 1,
					"midpoints" : [  ]
				}

			}
 ]
	}

}
